
<svg class="layer-passport">
    <path style="fill:#000000; stroke:none;" d="M46.6667 60.3333L47.3333 60.6667L46.6667 60.3333z"/>
    <path style="fill:#ffffff; stroke:none;" d="M40 117C30.3349 117.201 14.0265 120.987 9.85802 131.015C7.31291 137.137 9 146.448 9 153L96 153C96 146.671 97.5424 137.971 95.2577 132C90.941 120.719 73.5905 117.088 63 117C67.909 113 72.4488 108.896 75.0949 103C76.9864 98.7856 76.9985 94.5285 77 90C77.0027 81.5759 75.9025 74.4794 69.8148 68.0934C53.2372 50.7033 26.5704 64.6093 26.0147 87C25.897 91.7399 25.9404 96.4813 27.5486 101C30.0792 108.11 35.0356 111.812 40 117z"/>
    <path style="fill:#000000; stroke:none;" d="M55.6667 60.3333L56.3333 60.6667L55.6667 60.3333z"/>
    <path style="fill:#ffffff; stroke:none;" d="M0 158L0 211L300 211L300 158L0 158z"/>
    <path style="fill:#000000; stroke:none;" d="M17  184L17 186L33 193C31.4141 187.963 26.4376 187.076 22 185C26.4376 182.924 31.4141 182.037 33 177L17 184z"/>
    <path style="fill:#000000; stroke:none;" d="M44  184L44 186L60 193C58.4141 187.963 53.4376 187.076 49 185C53.4375 182.924 58.4141 182.037 60 177L44 184z"/>
    <path style="fill:#000000; stroke:none;" d="M71  184L71 186L87 193C85.4141 187.963 80.4376 187.076 76 185C80.4376 182.924 85.4141 182.037 87 177L71 184z"/>
    <path style="fill:#000000; stroke:none;" d="M98  184L98 186L114 193C112.414 187.963 107.438 187.076 103 185C107.438 182.924 112.414 182.037 114 177L98 184z"/>
    <path style="fill:#000000; stroke:none;" d="M125 184L125 186L141 193C139.414 187.963 134.438 187.076 130 185C134.438 182.924 139.414 182.037 141 177L125 184z"/>
    <path style="fill:#000000; stroke:none;" d="M152 184L152 186L168 193C166.414 187.963 161.438 187.076 157 185C161.438 182.924 166.414 182.037 168 177L152 184z"/>
    <path style="fill:#000000; stroke:none;" d="M179 184L179 186L195 193C193.414 187.963 188.438 187.076 184 185C188.438 182.924 193.414 182.037 195 177L179 184z"/>
    <path style="fill:#000000; stroke:none;" d="M206 184L206 186L222 193C220.414 187.963 215.438 187.076 211 185C215.438 182.924 220.414 182.037 222 177L206 184z"/>
    <path style="fill:#000000; stroke:none;" d="M233 184L233 186L249 193C247.414 187.963 242.438 187.076 238 185C242.438 182.924 247.414 182.037 249 177L233 184z"/>
    <path style="fill:#000000; stroke:none;" d="M260 184L260 186L276 193C274.414 187.963 269.438 187.076 265 185C269.438 182.924 274.414 182.037 276 177L260 184z"/>         
</svg>